<svg width="360" height="360" viewBox="0 0 360 360" fill="none" xmlns="http://www.w3.org/2000/svg">
  <defs>
    <linearGradient id="bg" x1="32" y1="34" x2="324" y2="326" gradientUnits="userSpaceOnUse">
      <stop stop-color="#08D9D6"/>
      <stop offset="0.45" stop-color="#00BFA6"/>
      <stop offset="1" stop-color="#76FF7A"/>
    </linearGradient>
    <linearGradient id="swipe" x1="116" y1="85" x2="278" y2="254" gradientUnits="userSpaceOnUse">
      <stop stop-color="#FF2E63"/>
      <stop offset="1" stop-color="#FF6B35"/>
    </linearGradient>
  </defs>
  <rect x="20" y="20" width="320" height="320" rx="88" fill="url(#bg)"/>
  <path d="M182 85C160 58 102 72 102 123C102 155 126 180 165 214L182 229L199 214C238 180 262 155 262 123C262 72 204 58 182 85Z" fill="#0A1124"/>
  <path d="M100 184C124 211 150 231 182 249C213 231 238 211 261 184" stroke="#0A1124" stroke-width="18" stroke-linecap="round"/>
  <path d="M116 205C146 236 179 255 212 264" stroke="url(#swipe)" stroke-width="17" stroke-linecap="round"/>
  <path d="M208 248L246 252L232 285" stroke="url(#swipe)" stroke-width="14" stroke-linecap="round" stroke-linejoin="round"/>
  <circle cx="182" cy="124" r="18" fill="#76FF7A"/>
  <path d="M176 124C176 114 184 108 194 108" stroke="#0A1124" stroke-width="6" stroke-linecap="round"/>
  <rect x="20" y="20" width="320" height="320" rx="88" stroke="rgba(255,255,255,0.34)"/>
</svg>